<?xml version="1.0" encoding="UTF-8" standalone="no"?>
<!DOCTYPE svg PUBLIC "-//W3C//DTD SVG 1.1//EN"
 "http://www.w3.org/Graphics/SVG/1.1/DTD/svg11.dtd">
<!-- Generated by graphviz version 2.28.0 (20120310.1621)
 -->
<!-- Title: controllers_diagram Pages: 1 -->
<svg width="692pt" height="748pt"
 viewBox="0.00 0.00 691.88 748.20" xmlns="http://www.w3.org/2000/svg" xmlns:xlink="http://www.w3.org/1999/xlink">
<g id="graph1" class="graph" transform="scale(1 1) rotate(0) translate(4 744.2)">
<title>controllers_diagram</title>
<polygon fill="white" stroke="white" points="-4,5 -4,-744.2 688.883,-744.2 688.883,5 -4,5"/>
<!-- _diagram_info -->
<g id="node1" class="node"><title>_diagram_info</title>
<text text-anchor="start" x="288" y="-57.2" font-family="Times,serif" font-size="14.00">Controllers diagram</text>
<text text-anchor="start" x="288" y="-40.4" font-family="Times,serif" font-size="14.00">Date: Mar 10 2012 &#45; 17:26</text>
<text text-anchor="start" x="288" y="-23.6" font-family="Times,serif" font-size="14.00">Migration version: 20110921125016</text>
<text text-anchor="start" x="288" y="-6.8" font-family="Times,serif" font-size="14.00">Generated by RailRoad 0.5.0</text>
</g>
<!-- AlbumsController -->
<g id="node2" class="node"><title>AlbumsController</title>
<polyline fill="none" stroke="black" points="32,-180.5 125.883,-180.5 "/>
<path fill="none" stroke="black" d="M125.883,-180.5C131.883,-180.5 137.883,-186.5 137.883,-192.5"/>
<polyline fill="none" stroke="black" points="137.883,-192.5 137.883,-367.7 "/>
<path fill="none" stroke="black" d="M137.883,-367.7C137.883,-373.7 131.883,-379.7 125.883,-379.7"/>
<polyline fill="none" stroke="black" points="125.883,-379.7 32,-379.7 "/>
<path fill="none" stroke="black" d="M32,-379.7C26,-379.7 20,-373.7 20,-367.7"/>
<polyline fill="none" stroke="black" points="20,-367.7 20,-192.5 "/>
<path fill="none" stroke="black" d="M20,-192.5C20,-186.5 26,-180.5 32,-180.5"/>
<text text-anchor="middle" x="78.9414" y="-361.7" font-family="Times,serif" font-size="14.00">AlbumsController</text>
<polyline fill="none" stroke="black" points="20,-354.9 137.883,-354.9 "/>
<text text-anchor="start" x="28" y="-336.9" font-family="Times,serif" font-size="14.00">create</text>
<text text-anchor="start" x="28" y="-320.1" font-family="Times,serif" font-size="14.00">destroy</text>
<text text-anchor="start" x="28" y="-303.3" font-family="Times,serif" font-size="14.00">edit</text>
<text text-anchor="start" x="28" y="-286.5" font-family="Times,serif" font-size="14.00">index</text>
<text text-anchor="start" x="28" y="-269.7" font-family="Times,serif" font-size="14.00">new</text>
<text text-anchor="start" x="28" y="-252.9" font-family="Times,serif" font-size="14.00">show</text>
<text text-anchor="start" x="28" y="-236.1" font-family="Times,serif" font-size="14.00">update</text>
<polyline fill="none" stroke="black" points="20,-229.3 137.883,-229.3 "/>
<polyline fill="none" stroke="black" points="20,-205.3 137.883,-205.3 "/>
<text text-anchor="start" x="28" y="-187.3" font-family="Times,serif" font-size="14.00">_layout</text>
</g>
<!-- ApplicationController -->
<g id="node3" class="node"><title>ApplicationController</title>
<polyline fill="none" stroke="black" points="432,-120.5 610.635,-120.5 "/>
<path fill="none" stroke="black" d="M610.635,-120.5C616.635,-120.5 622.635,-126.5 622.635,-132.5"/>
<polyline fill="none" stroke="black" points="622.635,-132.5 622.635,-324.5 "/>
<path fill="none" stroke="black" d="M622.635,-324.5C622.635,-330.5 616.635,-336.5 610.635,-336.5"/>
<polyline fill="none" stroke="black" points="610.635,-336.5 432,-336.5 "/>
<path fill="none" stroke="black" d="M432,-336.5C426,-336.5 420,-330.5 420,-324.5"/>
<polyline fill="none" stroke="black" points="420,-324.5 420,-132.5 "/>
<path fill="none" stroke="black" d="M420,-132.5C420,-126.5 426,-120.5 432,-120.5"/>
<text text-anchor="middle" x="521.317" y="-318.5" font-family="Times,serif" font-size="14.00">ApplicationController</text>
<polyline fill="none" stroke="black" points="420,-311.7 622.635,-311.7 "/>
<text text-anchor="start" x="428" y="-293.7" font-family="Times,serif" font-size="14.00">_callback_before_17</text>
<text text-anchor="start" x="428" y="-276.9" font-family="Times,serif" font-size="14.00">_one_time_conditions_valid_12?</text>
<text text-anchor="start" x="428" y="-260.1" font-family="Times,serif" font-size="14.00">_one_time_conditions_valid_14?</text>
<text text-anchor="start" x="428" y="-243.3" font-family="Times,serif" font-size="14.00">_one_time_conditions_valid_16?</text>
<text text-anchor="start" x="428" y="-226.5" font-family="Times,serif" font-size="14.00">_one_time_conditions_valid_18?</text>
<text text-anchor="start" x="428" y="-209.7" font-family="Times,serif" font-size="14.00">find_latest_votes</text>
<text text-anchor="start" x="428" y="-192.9" font-family="Times,serif" font-size="14.00">set_locale</text>
<polyline fill="none" stroke="black" points="420,-186.1 622.635,-186.1 "/>
<polyline fill="none" stroke="black" points="420,-162.1 622.635,-162.1 "/>
<text text-anchor="start" x="428" y="-144.1" font-family="Times,serif" font-size="14.00">_layout</text>
<text text-anchor="start" x="428" y="-127.3" font-family="Times,serif" font-size="14.00">_run_process_action_callbacks</text>
</g>
<!-- ArtistsController -->
<g id="node4" class="node"><title>ArtistsController</title>
<polyline fill="none" stroke="black" points="12,-540.5 98.8828,-540.5 "/>
<path fill="none" stroke="black" d="M98.8828,-540.5C104.883,-540.5 110.883,-546.5 110.883,-552.5"/>
<polyline fill="none" stroke="black" points="110.883,-552.5 110.883,-727.7 "/>
<path fill="none" stroke="black" d="M110.883,-727.7C110.883,-733.7 104.883,-739.7 98.8828,-739.7"/>
<polyline fill="none" stroke="black" points="98.8828,-739.7 12,-739.7 "/>
<path fill="none" stroke="black" d="M12,-739.7C6,-739.7 0,-733.7 0,-727.7"/>
<polyline fill="none" stroke="black" points="0,-727.7 0,-552.5 "/>
<path fill="none" stroke="black" d="M0,-552.5C0,-546.5 6,-540.5 12,-540.5"/>
<text text-anchor="middle" x="55.4414" y="-721.7" font-family="Times,serif" font-size="14.00">ArtistsController</text>
<polyline fill="none" stroke="black" points="0,-714.9 110.883,-714.9 "/>
<text text-anchor="start" x="8" y="-696.9" font-family="Times,serif" font-size="14.00">create</text>
<text text-anchor="start" x="8" y="-680.1" font-family="Times,serif" font-size="14.00">destroy</text>
<text text-anchor="start" x="8" y="-663.3" font-family="Times,serif" font-size="14.00">edit</text>
<text text-anchor="start" x="8" y="-646.5" font-family="Times,serif" font-size="14.00">index</text>
<text text-anchor="start" x="8" y="-629.7" font-family="Times,serif" font-size="14.00">new</text>
<text text-anchor="start" x="8" y="-612.9" font-family="Times,serif" font-size="14.00">show</text>
<text text-anchor="start" x="8" y="-596.1" font-family="Times,serif" font-size="14.00">update</text>
<polyline fill="none" stroke="black" points="0,-589.3 110.883,-589.3 "/>
<polyline fill="none" stroke="black" points="0,-565.3 110.883,-565.3 "/>
<text text-anchor="start" x="8" y="-547.3" font-family="Times,serif" font-size="14.00">_layout</text>
</g>
<!-- PlaylistItemsController -->
<g id="node5" class="node"><title>PlaylistItemsController</title>
<polyline fill="none" stroke="black" points="192,-120.5 370.635,-120.5 "/>
<path fill="none" stroke="black" d="M370.635,-120.5C376.635,-120.5 382.635,-126.5 382.635,-132.5"/>
<polyline fill="none" stroke="black" points="382.635,-132.5 382.635,-374.9 "/>
<path fill="none" stroke="black" d="M382.635,-374.9C382.635,-380.9 376.635,-386.9 370.635,-386.9"/>
<polyline fill="none" stroke="black" points="370.635,-386.9 192,-386.9 "/>
<path fill="none" stroke="black" d="M192,-386.9C186,-386.9 180,-380.9 180,-374.9"/>
<polyline fill="none" stroke="black" points="180,-374.9 180,-132.5 "/>
<path fill="none" stroke="black" d="M180,-132.5C180,-126.5 186,-120.5 192,-120.5"/>
<text text-anchor="middle" x="281.317" y="-368.9" font-family="Times,serif" font-size="14.00">PlaylistItemsController</text>
<polyline fill="none" stroke="black" points="180,-362.1 382.635,-362.1 "/>
<text text-anchor="start" x="188" y="-344.1" font-family="Times,serif" font-size="14.00">_callback_before_61</text>
<text text-anchor="start" x="188" y="-327.3" font-family="Times,serif" font-size="14.00">_one_time_conditions_valid_62?</text>
<text text-anchor="start" x="188" y="-310.5" font-family="Times,serif" font-size="14.00">create</text>
<text text-anchor="start" x="188" y="-293.7" font-family="Times,serif" font-size="14.00">destroy</text>
<text text-anchor="start" x="188" y="-276.9" font-family="Times,serif" font-size="14.00">edit</text>
<text text-anchor="start" x="188" y="-260.1" font-family="Times,serif" font-size="14.00">index</text>
<text text-anchor="start" x="188" y="-243.3" font-family="Times,serif" font-size="14.00">new</text>
<text text-anchor="start" x="188" y="-226.5" font-family="Times,serif" font-size="14.00">play</text>
<text text-anchor="start" x="188" y="-209.7" font-family="Times,serif" font-size="14.00">show</text>
<text text-anchor="start" x="188" y="-192.9" font-family="Times,serif" font-size="14.00">update</text>
<polyline fill="none" stroke="black" points="180,-186.1 382.635,-186.1 "/>
<polyline fill="none" stroke="black" points="180,-162.1 382.635,-162.1 "/>
<text text-anchor="start" x="188" y="-144.1" font-family="Times,serif" font-size="14.00">_layout</text>
<text text-anchor="start" x="188" y="-127.3" font-family="Times,serif" font-size="14.00">_run_process_action_callbacks</text>
</g>
<!-- PlaylistsController -->
<g id="node6" class="node"><title>PlaylistsController</title>
<polyline fill="none" stroke="black" points="432,-380.5 529,-380.5 "/>
<path fill="none" stroke="black" d="M529,-380.5C535,-380.5 541,-386.5 541,-392.5"/>
<polyline fill="none" stroke="black" points="541,-392.5 541,-618.1 "/>
<path fill="none" stroke="black" d="M541,-618.1C541,-624.1 535,-630.1 529,-630.1"/>
<polyline fill="none" stroke="black" points="529,-630.1 432,-630.1 "/>
<path fill="none" stroke="black" d="M432,-630.1C426,-630.1 420,-624.1 420,-618.1"/>
<polyline fill="none" stroke="black" points="420,-618.1 420,-392.5 "/>
<path fill="none" stroke="black" d="M420,-392.5C420,-386.5 426,-380.5 432,-380.5"/>
<text text-anchor="middle" x="480.5" y="-612.1" font-family="Times,serif" font-size="14.00">PlaylistsController</text>
<polyline fill="none" stroke="black" points="420,-605.3 541,-605.3 "/>
<text text-anchor="start" x="428" y="-587.3" font-family="Times,serif" font-size="14.00">create</text>
<text text-anchor="start" x="428" y="-570.5" font-family="Times,serif" font-size="14.00">destroy</text>
<text text-anchor="start" x="428" y="-553.7" font-family="Times,serif" font-size="14.00">edit</text>
<text text-anchor="start" x="428" y="-536.9" font-family="Times,serif" font-size="14.00">index</text>
<text text-anchor="start" x="428" y="-520.1" font-family="Times,serif" font-size="14.00">new</text>
<text text-anchor="start" x="428" y="-503.3" font-family="Times,serif" font-size="14.00">next</text>
<text text-anchor="start" x="428" y="-486.5" font-family="Times,serif" font-size="14.00">pause</text>
<text text-anchor="start" x="428" y="-469.7" font-family="Times,serif" font-size="14.00">play</text>
<text text-anchor="start" x="428" y="-452.9" font-family="Times,serif" font-size="14.00">show</text>
<text text-anchor="start" x="428" y="-436.1" font-family="Times,serif" font-size="14.00">update</text>
<polyline fill="none" stroke="black" points="420,-429.3 541,-429.3 "/>
<polyline fill="none" stroke="black" points="420,-405.3 541,-405.3 "/>
<text text-anchor="start" x="428" y="-387.3" font-family="Times,serif" font-size="14.00">_layout</text>
</g>
<!-- PlaysController -->
<g id="node7" class="node"><title>PlaysController</title>
<polyline fill="none" stroke="black" points="592,-380.5 671.883,-380.5 "/>
<path fill="none" stroke="black" d="M671.883,-380.5C677.883,-380.5 683.883,-386.5 683.883,-392.5"/>
<polyline fill="none" stroke="black" points="683.883,-392.5 683.883,-567.7 "/>
<path fill="none" stroke="black" d="M683.883,-567.7C683.883,-573.7 677.883,-579.7 671.883,-579.7"/>
<polyline fill="none" stroke="black" points="671.883,-579.7 592,-579.7 "/>
<path fill="none" stroke="black" d="M592,-579.7C586,-579.7 580,-573.7 580,-567.7"/>
<polyline fill="none" stroke="black" points="580,-567.7 580,-392.5 "/>
<path fill="none" stroke="black" d="M580,-392.5C580,-386.5 586,-380.5 592,-380.5"/>
<text text-anchor="middle" x="631.941" y="-561.7" font-family="Times,serif" font-size="14.00">PlaysController</text>
<polyline fill="none" stroke="black" points="580,-554.9 683.883,-554.9 "/>
<text text-anchor="start" x="588" y="-536.9" font-family="Times,serif" font-size="14.00">create</text>
<text text-anchor="start" x="588" y="-520.1" font-family="Times,serif" font-size="14.00">destroy</text>
<text text-anchor="start" x="588" y="-503.3" font-family="Times,serif" font-size="14.00">edit</text>
<text text-anchor="start" x="588" y="-486.5" font-family="Times,serif" font-size="14.00">index</text>
<text text-anchor="start" x="588" y="-469.7" font-family="Times,serif" font-size="14.00">new</text>
<text text-anchor="start" x="588" y="-452.9" font-family="Times,serif" font-size="14.00">show</text>
<text text-anchor="start" x="588" y="-436.1" font-family="Times,serif" font-size="14.00">update</text>
<polyline fill="none" stroke="black" points="580,-429.3 683.883,-429.3 "/>
<polyline fill="none" stroke="black" points="580,-405.3 683.883,-405.3 "/>
<text text-anchor="start" x="588" y="-387.3" font-family="Times,serif" font-size="14.00">_layout</text>
</g>
<!-- SearchController -->
<g id="node8" class="node"><title>SearchController</title>
<polyline fill="none" stroke="black" points="32,-0.5 122.745,-0.5 "/>
<path fill="none" stroke="black" d="M122.745,-0.5C128.745,-0.5 134.745,-6.5 134.745,-12.5"/>
<polyline fill="none" stroke="black" points="134.745,-12.5 134.745,-120.5 "/>
<path fill="none" stroke="black" d="M134.745,-120.5C134.745,-126.5 128.745,-132.5 122.745,-132.5"/>
<polyline fill="none" stroke="black" points="122.745,-132.5 32,-132.5 "/>
<path fill="none" stroke="black" d="M32,-132.5C26,-132.5 20,-126.5 20,-120.5"/>
<polyline fill="none" stroke="black" points="20,-120.5 20,-12.5 "/>
<path fill="none" stroke="black" d="M20,-12.5C20,-6.5 26,-0.5 32,-0.5"/>
<text text-anchor="middle" x="77.3726" y="-114.5" font-family="Times,serif" font-size="14.00">SearchController</text>
<polyline fill="none" stroke="black" points="20,-107.7 134.745,-107.7 "/>
<text text-anchor="start" x="28" y="-89.7" font-family="Times,serif" font-size="14.00">index</text>
<polyline fill="none" stroke="black" points="20,-82.9 134.745,-82.9 "/>
<polyline fill="none" stroke="black" points="20,-58.9 134.745,-58.9 "/>
<text text-anchor="start" x="28" y="-40.9" font-family="Times,serif" font-size="14.00">_layout</text>
<text text-anchor="start" x="28" y="-24.1" font-family="Times,serif" font-size="14.00">tracks_for_album</text>
<text text-anchor="start" x="28" y="-7.3" font-family="Times,serif" font-size="14.00">tracks_for_artist</text>
</g>
<!-- TracksController -->
<g id="node9" class="node"><title>TracksController</title>
<polyline fill="none" stroke="black" points="292,-420.5 379.149,-420.5 "/>
<path fill="none" stroke="black" d="M379.149,-420.5C385.149,-420.5 391.149,-426.5 391.149,-432.5"/>
<polyline fill="none" stroke="black" points="391.149,-432.5 391.149,-624.5 "/>
<path fill="none" stroke="black" d="M391.149,-624.5C391.149,-630.5 385.149,-636.5 379.149,-636.5"/>
<polyline fill="none" stroke="black" points="379.149,-636.5 292,-636.5 "/>
<path fill="none" stroke="black" d="M292,-636.5C286,-636.5 280,-630.5 280,-624.5"/>
<polyline fill="none" stroke="black" points="280,-624.5 280,-432.5 "/>
<path fill="none" stroke="black" d="M280,-432.5C280,-426.5 286,-420.5 292,-420.5"/>
<text text-anchor="middle" x="335.575" y="-618.5" font-family="Times,serif" font-size="14.00">TracksController</text>
<polyline fill="none" stroke="black" points="280,-611.7 391.149,-611.7 "/>
<text text-anchor="start" x="288" y="-593.7" font-family="Times,serif" font-size="14.00">create</text>
<text text-anchor="start" x="288" y="-576.9" font-family="Times,serif" font-size="14.00">destroy</text>
<text text-anchor="start" x="288" y="-560.1" font-family="Times,serif" font-size="14.00">edit</text>
<text text-anchor="start" x="288" y="-543.3" font-family="Times,serif" font-size="14.00">index</text>
<text text-anchor="start" x="288" y="-526.5" font-family="Times,serif" font-size="14.00">new</text>
<text text-anchor="start" x="288" y="-509.7" font-family="Times,serif" font-size="14.00">play</text>
<text text-anchor="start" x="288" y="-492.9" font-family="Times,serif" font-size="14.00">show</text>
<text text-anchor="start" x="288" y="-476.1" font-family="Times,serif" font-size="14.00">update</text>
<polyline fill="none" stroke="black" points="280,-469.3 391.149,-469.3 "/>
<polyline fill="none" stroke="black" points="280,-445.3 391.149,-445.3 "/>
<text text-anchor="start" x="288" y="-427.3" font-family="Times,serif" font-size="14.00">_layout</text>
</g>
<!-- VotesController -->
<g id="node10" class="node"><title>VotesController</title>
<polyline fill="none" stroke="black" points="152,-420.5 232.402,-420.5 "/>
<path fill="none" stroke="black" d="M232.402,-420.5C238.402,-420.5 244.402,-426.5 244.402,-432.5"/>
<polyline fill="none" stroke="black" points="244.402,-432.5 244.402,-607.7 "/>
<path fill="none" stroke="black" d="M244.402,-607.7C244.402,-613.7 238.402,-619.7 232.402,-619.7"/>
<polyline fill="none" stroke="black" points="232.402,-619.7 152,-619.7 "/>
<path fill="none" stroke="black" d="M152,-619.7C146,-619.7 140,-613.7 140,-607.7"/>
<polyline fill="none" stroke="black" points="140,-607.7 140,-432.5 "/>
<path fill="none" stroke="black" d="M140,-432.5C140,-426.5 146,-420.5 152,-420.5"/>
<text text-anchor="middle" x="192.201" y="-601.7" font-family="Times,serif" font-size="14.00">VotesController</text>
<polyline fill="none" stroke="black" points="140,-594.9 244.402,-594.9 "/>
<text text-anchor="start" x="148" y="-576.9" font-family="Times,serif" font-size="14.00">create</text>
<text text-anchor="start" x="148" y="-560.1" font-family="Times,serif" font-size="14.00">destroy</text>
<text text-anchor="start" x="148" y="-543.3" font-family="Times,serif" font-size="14.00">edit</text>
<text text-anchor="start" x="148" y="-526.5" font-family="Times,serif" font-size="14.00">index</text>
<text text-anchor="start" x="148" y="-509.7" font-family="Times,serif" font-size="14.00">new</text>
<text text-anchor="start" x="148" y="-492.9" font-family="Times,serif" font-size="14.00">show</text>
<text text-anchor="start" x="148" y="-476.1" font-family="Times,serif" font-size="14.00">update</text>
<polyline fill="none" stroke="black" points="140,-469.3 244.402,-469.3 "/>
<polyline fill="none" stroke="black" points="140,-445.3 244.402,-445.3 "/>
<text text-anchor="start" x="148" y="-427.3" font-family="Times,serif" font-size="14.00">_layout</text>
</g>
</g>
</svg>
