<?xml version="1.0" encoding="UTF-8" standalone="no"?>
<!DOCTYPE svg PUBLIC "-//W3C//DTD SVG 1.1//EN"
 "http://www.w3.org/Graphics/SVG/1.1/DTD/svg11.dtd">
<!-- Generated by graphviz version 2.28.0 (20120310.1621)
 -->
<!-- Title: models_diagram Pages: 1 -->
<svg width="527pt" height="300pt"
 viewBox="0.00 0.00 527.31 300.00" xmlns="http://www.w3.org/2000/svg" xmlns:xlink="http://www.w3.org/1999/xlink">
<g id="graph1" class="graph" transform="scale(1 1) rotate(0) translate(4 296)">
<title>models_diagram</title>
<polygon fill="white" stroke="white" points="-4,5 -4,-296 524.307,-296 524.307,5 -4,5"/>
<!-- _diagram_info -->
<g id="node1" class="node"><title>_diagram_info</title>
<text text-anchor="start" x="7.46436" y="-273.6" font-family="Times,serif" font-size="14.00">Models diagram</text>
<text text-anchor="start" x="7.46436" y="-256.8" font-family="Times,serif" font-size="14.00">Date: Mar 10 2012 &#45; 17:26</text>
<text text-anchor="start" x="7.46436" y="-240" font-family="Times,serif" font-size="14.00">Migration version: 20110921125016</text>
<text text-anchor="start" x="7.46436" y="-223.2" font-family="Times,serif" font-size="14.00">Generated by RailRoad 0.5.0</text>
</g>
<!-- Album -->
<g id="node2" class="node"><title>Album</title>
<ellipse fill="none" stroke="black" cx="276" cy="-254" rx="37.2949" ry="18"/>
<text text-anchor="middle" x="276" y="-248.4" font-family="Times,serif" font-size="14.00">Album</text>
</g>
<!-- Artist -->
<g id="node3" class="node"><title>Artist</title>
<ellipse fill="none" stroke="black" cx="365" cy="-254" rx="33.0501" ry="18"/>
<text text-anchor="middle" x="365" y="-248.4" font-family="Times,serif" font-size="14.00">Artist</text>
</g>
<!-- Play -->
<g id="node4" class="node"><title>Play</title>
<ellipse fill="none" stroke="black" cx="350" cy="-18" rx="28.3082" ry="18"/>
<text text-anchor="middle" x="350" y="-12.4" font-family="Times,serif" font-size="14.00">Play</text>
</g>
<!-- Playlist -->
<g id="node5" class="node"><title>Playlist</title>
<ellipse fill="none" stroke="black" cx="372" cy="-162" rx="40.0181" ry="18"/>
<text text-anchor="middle" x="372" y="-156.4" font-family="Times,serif" font-size="14.00">Playlist</text>
</g>
<!-- Playlist&#45;&gt;Play -->
<g id="edge4" class="edge"><title>Playlist&#45;&gt;Play</title>
<path fill="none" stroke="black" d="M358.26,-135.129C354.484,-126.715 350.905,-117.176 349,-108 344.74,-87.4809 345.274,-63.7243 346.719,-45.9191"/>
<polygon fill="black" stroke="black" points="358.38,-135.379 358.637,-146.342 360.538,-139.889 362.696,-144.4 362.696,-144.4 362.696,-144.4 360.538,-139.889 366.755,-142.457 358.38,-135.379 358.38,-135.379"/>
<polygon fill="black" stroke="black" points="346.721,-45.8936 352.152,-36.3673 347.197,-40.9163 347.673,-35.939 347.673,-35.939 347.673,-35.939 347.197,-40.9163 343.193,-35.5107 346.721,-45.8936 346.721,-45.8936"/>
</g>
<!-- PlaylistItem -->
<g id="node6" class="node"><title>PlaylistItem</title>
<ellipse fill="none" stroke="black" cx="449" cy="-90" rx="57.5624" ry="18"/>
<text text-anchor="middle" x="449" y="-84.4" font-family="Times,serif" font-size="14.00">PlaylistItem</text>
</g>
<!-- Playlist&#45;&gt;PlaylistItem -->
<g id="edge2" class="edge"><title>Playlist&#45;&gt;PlaylistItem</title>
<path fill="none" stroke="black" d="M396.525,-138.704C405.665,-130.396 416.02,-120.982 425.102,-112.725"/>
<polygon fill="black" stroke="black" points="396.488,-138.738 386.062,-142.135 392.789,-142.101 389.089,-145.465 389.089,-145.465 389.089,-145.465 392.789,-142.101 392.116,-148.794 396.488,-138.738 396.488,-138.738"/>
<ellipse fill="black" stroke="black" cx="428.196" cy="-109.912" rx="4.00002" ry="4.00002"/>
</g>
<!-- Vote -->
<g id="node8" class="node"><title>Vote</title>
<ellipse fill="none" stroke="black" cx="449" cy="-18" rx="28.3445" ry="18"/>
<text text-anchor="middle" x="449" y="-12.4" font-family="Times,serif" font-size="14.00">Vote</text>
</g>
<!-- Playlist&#45;&gt;Vote -->
<g id="edge6" class="edge"><title>Playlist&#45;&gt;Vote</title>
<path fill="none" stroke="black" d="M369.777,-133.634C369.496,-115.133 371.592,-90.7513 382,-72 390.443,-56.7883 405.217,-44.389 418.746,-35.4187"/>
<polygon fill="black" stroke="black" points="369.783,-133.768 365.676,-143.936 369.978,-138.765 370.173,-143.761 370.173,-143.761 370.173,-143.761 369.978,-138.765 374.669,-143.585 369.783,-133.768 369.783,-133.768"/>
<polygon fill="black" stroke="black" points="418.898,-35.3238 429.763,-33.84 423.138,-32.6739 427.378,-30.024 427.378,-30.024 427.378,-30.024 423.138,-32.6739 424.993,-26.2079 418.898,-35.3238 418.898,-35.3238"/>
</g>
<!-- PlaylistItem&#45;&gt;Play -->
<g id="edge10" class="edge"><title>PlaylistItem&#45;&gt;Play</title>
<path fill="none" stroke="black" d="M418.268,-67.2706C404.246,-57.3558 387.865,-45.7733 374.665,-36.4396"/>
<polygon fill="black" stroke="black" points="418.37,-67.3426 423.937,-76.7902 422.453,-70.2292 426.535,-73.1159 426.535,-73.1159 426.535,-73.1159 422.453,-70.2292 429.133,-69.4416 418.37,-67.3426 418.37,-67.3426"/>
<ellipse fill="black" stroke="black" cx="371.347" cy="-34.0937" rx="4.00002" ry="4.00002"/>
</g>
<!-- PlaylistItem&#45;&gt;Vote -->
<g id="edge8" class="edge"><title>PlaylistItem&#45;&gt;Vote</title>
<path fill="none" stroke="black" d="M449,-61.6651C449,-56.0139 449,-50.0823 449,-44.4995"/>
<polygon fill="black" stroke="black" points="449,-61.6966 444.5,-71.6966 449,-66.6966 449,-71.6966 449,-71.6966 449,-71.6966 449,-66.6966 453.5,-71.6967 449,-61.6966 449,-61.6966"/>
<ellipse fill="black" stroke="black" cx="449" cy="-40.1043" rx="4" ry="4"/>
</g>
<!-- Track -->
<g id="node7" class="node"><title>Track</title>
<ellipse fill="none" stroke="black" cx="449" cy="-254" rx="33.3267" ry="18"/>
<text text-anchor="middle" x="449" y="-248.4" font-family="Times,serif" font-size="14.00">Track</text>
</g>
<!-- Track&#45;&gt;Playlist -->
<g id="edge14" class="edge"><title>Track&#45;&gt;Playlist</title>
<path fill="none" stroke="black" d="M428.906,-229.514C417.669,-216.38 403.697,-200.049 392.41,-186.856"/>
<polygon fill="black" stroke="black" points="429.087,-229.725 432.168,-240.249 432.337,-233.524 435.588,-237.323 435.588,-237.323 435.588,-237.323 432.337,-233.524 439.007,-234.398 429.087,-229.725 429.087,-229.725"/>
<polygon fill="black" stroke="black" points="392.278,-186.702 389.197,-176.178 389.028,-182.902 385.777,-179.103 385.777,-179.103 385.777,-179.103 389.028,-182.902 382.358,-182.029 392.278,-186.702 392.278,-186.702"/>
</g>
<!-- Track&#45;&gt;PlaylistItem -->
<g id="edge12" class="edge"><title>Track&#45;&gt;PlaylistItem</title>
<path fill="none" stroke="black" d="M449,-225.958C449,-195.492 449,-146.348 449,-116.522"/>
<polygon fill="black" stroke="black" points="449,-225.969 444.5,-235.969 449,-230.969 449,-235.969 449,-235.969 449,-235.969 449,-230.969 453.5,-235.969 449,-225.969 449,-225.969"/>
<ellipse fill="black" stroke="black" cx="449" cy="-112.29" rx="4" ry="4"/>
</g>
<!-- Track&#45;&gt;Vote -->
<g id="edge16" class="edge"><title>Track&#45;&gt;Vote</title>
<path fill="none" stroke="black" d="M464.331,-228.126C480.612,-200.123 505.309,-152.684 515,-108 518.391,-92.3635 521.918,-86.4272 515,-72 507.547,-56.4559 493.066,-44.0289 479.563,-35.126"/>
<polygon fill="black" stroke="black" points="464.262,-228.241 455.294,-234.552 461.714,-232.543 459.166,-236.845 459.166,-236.845 459.166,-236.845 461.714,-232.543 463.037,-239.139 464.262,-228.241 464.262,-228.241"/>
<polygon fill="black" stroke="black" points="479.424,-35.0401 473.279,-25.958 475.17,-32.4136 470.915,-29.7871 470.915,-29.7871 470.915,-29.7871 475.17,-32.4136 468.551,-33.6163 479.424,-35.0401 479.424,-35.0401"/>
</g>
</g>
</svg>
