<?xml version="1.0" encoding="UTF-8" standalone="no"?>
<!DOCTYPE svg PUBLIC "-//W3C//DTD SVG 1.1//EN"
 "http://www.w3.org/Graphics/SVG/1.1/DTD/svg11.dtd">
<!-- Generated by graphviz version 2.28.0 (20120310.1621)
 -->
<!-- Title: models_diagram Pages: 1 -->
<svg width="699pt" height="556pt"
 viewBox="0.00 0.00 699.00 556.00" xmlns="http://www.w3.org/2000/svg" xmlns:xlink="http://www.w3.org/1999/xlink">
<g id="graph1" class="graph" transform="scale(1 1) rotate(0) translate(4 552)">
<title>models_diagram</title>
<polygon fill="white" stroke="white" points="-4,5 -4,-552 696,-552 696,5 -4,5"/>
<!-- _diagram_info -->
<g id="node1" class="node"><title>_diagram_info</title>
<text text-anchor="start" x="7.46436" y="-466.6" font-family="Times,serif" font-size="14.00">Models diagram</text>
<text text-anchor="start" x="7.46436" y="-449.8" font-family="Times,serif" font-size="14.00">Date: Mar 10 2012 &#45; 17:25</text>
<text text-anchor="start" x="7.46436" y="-433" font-family="Times,serif" font-size="14.00">Migration version: 20110921125016</text>
<text text-anchor="start" x="7.46436" y="-416.2" font-family="Times,serif" font-size="14.00">Generated by RailRoad 0.5.0</text>
</g>
<!-- Album -->
<g id="node2" class="node"><title>Album</title>
<polyline fill="none" stroke="black" points="250.495,-397 359.505,-397 "/>
<path fill="none" stroke="black" d="M359.505,-397C365.505,-397 371.505,-403 371.505,-409"/>
<polyline fill="none" stroke="black" points="371.505,-409 371.505,-485 "/>
<path fill="none" stroke="black" d="M371.505,-485C371.505,-491 365.505,-497 359.505,-497"/>
<polyline fill="none" stroke="black" points="359.505,-497 250.495,-497 "/>
<path fill="none" stroke="black" d="M250.495,-497C244.495,-497 238.495,-491 238.495,-485"/>
<polyline fill="none" stroke="black" points="238.495,-485 238.495,-409 "/>
<path fill="none" stroke="black" d="M238.495,-409C238.495,-403 244.495,-397 250.495,-397"/>
<text text-anchor="middle" x="305" y="-479" font-family="Times,serif" font-size="14.00">Album</text>
<polyline fill="none" stroke="black" points="238.495,-472.2 371.505,-472.2 "/>
<text text-anchor="start" x="246.495" y="-454.2" font-family="Times,serif" font-size="14.00">name :string</text>
<text text-anchor="start" x="246.495" y="-437.4" font-family="Times,serif" font-size="14.00">released :integer</text>
<text text-anchor="start" x="246.495" y="-420.6" font-family="Times,serif" font-size="14.00">created_at :datetime</text>
<text text-anchor="start" x="246.495" y="-403.8" font-family="Times,serif" font-size="14.00">updated_at :datetime</text>
</g>
<!-- Artist -->
<g id="node3" class="node"><title>Artist</title>
<polyline fill="none" stroke="black" points="401.495,-405.4 510.505,-405.4 "/>
<path fill="none" stroke="black" d="M510.505,-405.4C516.505,-405.4 522.505,-411.4 522.505,-417.4"/>
<polyline fill="none" stroke="black" points="522.505,-417.4 522.505,-476.6 "/>
<path fill="none" stroke="black" d="M522.505,-476.6C522.505,-482.6 516.505,-488.6 510.505,-488.6"/>
<polyline fill="none" stroke="black" points="510.505,-488.6 401.495,-488.6 "/>
<path fill="none" stroke="black" d="M401.495,-488.6C395.495,-488.6 389.495,-482.6 389.495,-476.6"/>
<polyline fill="none" stroke="black" points="389.495,-476.6 389.495,-417.4 "/>
<path fill="none" stroke="black" d="M389.495,-417.4C389.495,-411.4 395.495,-405.4 401.495,-405.4"/>
<text text-anchor="middle" x="456" y="-470.6" font-family="Times,serif" font-size="14.00">Artist</text>
<polyline fill="none" stroke="black" points="389.495,-463.8 522.505,-463.8 "/>
<text text-anchor="start" x="397.495" y="-445.8" font-family="Times,serif" font-size="14.00">name :string</text>
<text text-anchor="start" x="397.495" y="-429" font-family="Times,serif" font-size="14.00">created_at :datetime</text>
<text text-anchor="start" x="397.495" y="-412.2" font-family="Times,serif" font-size="14.00">updated_at :datetime</text>
</g>
<!-- Play -->
<g id="node4" class="node"><title>Play</title>
<polyline fill="none" stroke="black" points="419.495,-0.8 528.505,-0.8 "/>
<path fill="none" stroke="black" d="M528.505,-0.8C534.505,-0.8 540.505,-6.8 540.505,-12.8"/>
<polyline fill="none" stroke="black" points="540.505,-12.8 540.505,-55.2 "/>
<path fill="none" stroke="black" d="M540.505,-55.2C540.505,-61.2 534.505,-67.2 528.505,-67.2"/>
<polyline fill="none" stroke="black" points="528.505,-67.2 419.495,-67.2 "/>
<path fill="none" stroke="black" d="M419.495,-67.2C413.495,-67.2 407.495,-61.2 407.495,-55.2"/>
<polyline fill="none" stroke="black" points="407.495,-55.2 407.495,-12.8 "/>
<path fill="none" stroke="black" d="M407.495,-12.8C407.495,-6.8 413.495,-0.8 419.495,-0.8"/>
<text text-anchor="middle" x="474" y="-49.2" font-family="Times,serif" font-size="14.00">Play</text>
<polyline fill="none" stroke="black" points="407.495,-42.4 540.505,-42.4 "/>
<text text-anchor="start" x="415.495" y="-24.4" font-family="Times,serif" font-size="14.00">created_at :datetime</text>
<text text-anchor="start" x="415.495" y="-7.6" font-family="Times,serif" font-size="14.00">updated_at :datetime</text>
</g>
<!-- Playlist -->
<g id="node5" class="node"><title>Playlist</title>
<polyline fill="none" stroke="black" points="457.495,-209 566.505,-209 "/>
<path fill="none" stroke="black" d="M566.505,-209C572.505,-209 578.505,-215 578.505,-221"/>
<polyline fill="none" stroke="black" points="578.505,-221 578.505,-297 "/>
<path fill="none" stroke="black" d="M578.505,-297C578.505,-303 572.505,-309 566.505,-309"/>
<polyline fill="none" stroke="black" points="566.505,-309 457.495,-309 "/>
<path fill="none" stroke="black" d="M457.495,-309C451.495,-309 445.495,-303 445.495,-297"/>
<polyline fill="none" stroke="black" points="445.495,-297 445.495,-221 "/>
<path fill="none" stroke="black" d="M445.495,-221C445.495,-215 451.495,-209 457.495,-209"/>
<text text-anchor="middle" x="512" y="-291" font-family="Times,serif" font-size="14.00">Playlist</text>
<polyline fill="none" stroke="black" points="445.495,-284.2 578.505,-284.2 "/>
<text text-anchor="start" x="453.495" y="-266.2" font-family="Times,serif" font-size="14.00">name :string</text>
<text text-anchor="start" x="453.495" y="-249.4" font-family="Times,serif" font-size="14.00">created_at :datetime</text>
<text text-anchor="start" x="453.495" y="-232.6" font-family="Times,serif" font-size="14.00">updated_at :datetime</text>
<text text-anchor="start" x="453.495" y="-215.8" font-family="Times,serif" font-size="14.00">is_playing :integer</text>
</g>
<!-- Playlist&#45;&gt;Play -->
<g id="edge4" class="edge"><title>Playlist&#45;&gt;Play</title>
<path fill="none" stroke="black" d="M501.93,-198.905C495.414,-160.668 487.085,-111.787 481.224,-77.3917"/>
<polygon fill="black" stroke="black" points="501.934,-198.928 499.178,-209.542 502.774,-203.857 503.614,-208.786 503.614,-208.786 503.614,-208.786 502.774,-203.857 508.05,-208.03 501.934,-198.928 501.934,-198.928"/>
<polygon fill="black" stroke="black" points="481.169,-77.0682 483.925,-66.4543 480.329,-72.1392 479.489,-67.2103 479.489,-67.2103 479.489,-67.2103 480.329,-72.1392 475.053,-67.9662 481.169,-77.0682 481.169,-77.0682"/>
</g>
<!-- PlaylistItem -->
<g id="node6" class="node"><title>PlaylistItem</title>
<polyline fill="none" stroke="black" points="552.495,-104.8 661.505,-104.8 "/>
<path fill="none" stroke="black" d="M661.505,-104.8C667.505,-104.8 673.505,-110.8 673.505,-116.8"/>
<polyline fill="none" stroke="black" points="673.505,-116.8 673.505,-159.2 "/>
<path fill="none" stroke="black" d="M673.505,-159.2C673.505,-165.2 667.505,-171.2 661.505,-171.2"/>
<polyline fill="none" stroke="black" points="661.505,-171.2 552.495,-171.2 "/>
<path fill="none" stroke="black" d="M552.495,-171.2C546.495,-171.2 540.495,-165.2 540.495,-159.2"/>
<polyline fill="none" stroke="black" points="540.495,-159.2 540.495,-116.8 "/>
<path fill="none" stroke="black" d="M540.495,-116.8C540.495,-110.8 546.495,-104.8 552.495,-104.8"/>
<text text-anchor="middle" x="607" y="-153.2" font-family="Times,serif" font-size="14.00">PlaylistItem</text>
<polyline fill="none" stroke="black" points="540.495,-146.4 673.505,-146.4 "/>
<text text-anchor="start" x="548.495" y="-128.4" font-family="Times,serif" font-size="14.00">created_at :datetime</text>
<text text-anchor="start" x="548.495" y="-111.6" font-family="Times,serif" font-size="14.00">updated_at :datetime</text>
</g>
<!-- Playlist&#45;&gt;PlaylistItem -->
<g id="edge2" class="edge"><title>Playlist&#45;&gt;PlaylistItem</title>
<path fill="none" stroke="black" d="M557.644,-200.825C563.839,-193.065 570.076,-185.253 575.932,-177.917"/>
<polygon fill="black" stroke="black" points="557.428,-201.096 547.672,-206.104 554.308,-205.004 551.189,-208.911 551.189,-208.911 551.189,-208.911 554.308,-205.004 554.705,-211.719 557.428,-201.096 557.428,-201.096"/>
<ellipse fill="black" stroke="black" cx="578.696" cy="-174.454" rx="4.00002" ry="4.00002"/>
</g>
<!-- Vote -->
<g id="node8" class="node"><title>Vote</title>
<polyline fill="none" stroke="black" points="570.495,-0.8 679.505,-0.8 "/>
<path fill="none" stroke="black" d="M679.505,-0.8C685.505,-0.8 691.505,-6.8 691.505,-12.8"/>
<polyline fill="none" stroke="black" points="691.505,-12.8 691.505,-55.2 "/>
<path fill="none" stroke="black" d="M691.505,-55.2C691.505,-61.2 685.505,-67.2 679.505,-67.2"/>
<polyline fill="none" stroke="black" points="679.505,-67.2 570.495,-67.2 "/>
<path fill="none" stroke="black" d="M570.495,-67.2C564.495,-67.2 558.495,-61.2 558.495,-55.2"/>
<polyline fill="none" stroke="black" points="558.495,-55.2 558.495,-12.8 "/>
<path fill="none" stroke="black" d="M558.495,-12.8C558.495,-6.8 564.495,-0.8 570.495,-0.8"/>
<text text-anchor="middle" x="625" y="-49.2" font-family="Times,serif" font-size="14.00">Vote</text>
<polyline fill="none" stroke="black" points="558.495,-42.4 691.505,-42.4 "/>
<text text-anchor="start" x="566.495" y="-24.4" font-family="Times,serif" font-size="14.00">created_at :datetime</text>
<text text-anchor="start" x="566.495" y="-7.6" font-family="Times,serif" font-size="14.00">updated_at :datetime</text>
</g>
<!-- Playlist&#45;&gt;Vote -->
<g id="edge6" class="edge"><title>Playlist&#45;&gt;Vote</title>
<path fill="none" stroke="black" d="M508.523,-198.307C509.353,-168.187 514.488,-132.17 531,-104 537.689,-92.5877 547.088,-82.5059 557.377,-73.8188"/>
<polygon fill="black" stroke="black" points="508.518,-198.692 503.897,-208.637 508.458,-203.692 508.397,-208.691 508.397,-208.691 508.397,-208.691 508.458,-203.692 512.897,-208.746 508.518,-198.692 508.518,-198.692"/>
<polygon fill="black" stroke="black" points="557.561,-73.6723 568.189,-70.9711 561.475,-70.5605 565.389,-67.4487 565.389,-67.4487 565.389,-67.4487 561.475,-70.5605 562.588,-63.9264 557.561,-73.6723 557.561,-73.6723"/>
</g>
<!-- PlaylistItem&#45;&gt;Play -->
<g id="edge10" class="edge"><title>PlaylistItem&#45;&gt;Play</title>
<path fill="none" stroke="black" d="M556.751,-98.4632C545.597,-89.9089 533.793,-80.8564 522.702,-72.3506"/>
<polygon fill="black" stroke="black" points="556.983,-98.641 562.179,-108.297 560.95,-101.684 564.918,-104.727 564.918,-104.727 564.918,-104.727 560.95,-101.684 567.656,-101.156 556.983,-98.641 556.983,-98.641"/>
<ellipse fill="black" stroke="black" cx="519.439" cy="-69.8478" rx="4.00002" ry="4.00002"/>
</g>
<!-- PlaylistItem&#45;&gt;Vote -->
<g id="edge8" class="edge"><title>PlaylistItem&#45;&gt;Vote</title>
<path fill="none" stroke="black" d="M614.47,-94.6693C615.6,-88.2652 616.764,-81.6733 617.886,-75.3135"/>
<polygon fill="black" stroke="black" points="614.433,-94.8787 608.264,-103.944 613.564,-99.8026 612.695,-104.727 612.695,-104.727 612.695,-104.727 613.564,-99.8026 617.127,-105.509 614.433,-94.8787 614.433,-94.8787"/>
<ellipse fill="black" stroke="black" cx="618.585" cy="-71.3527" rx="4.00001" ry="4.00001"/>
</g>
<!-- Track -->
<g id="node7" class="node"><title>Track</title>
<polyline fill="none" stroke="black" points="552.495,-346.6 661.505,-346.6 "/>
<path fill="none" stroke="black" d="M661.505,-346.6C667.505,-346.6 673.505,-352.6 673.505,-358.6"/>
<polyline fill="none" stroke="black" points="673.505,-358.6 673.505,-535.4 "/>
<path fill="none" stroke="black" d="M673.505,-535.4C673.505,-541.4 667.505,-547.4 661.505,-547.4"/>
<polyline fill="none" stroke="black" points="661.505,-547.4 552.495,-547.4 "/>
<path fill="none" stroke="black" d="M552.495,-547.4C546.495,-547.4 540.495,-541.4 540.495,-535.4"/>
<polyline fill="none" stroke="black" points="540.495,-535.4 540.495,-358.6 "/>
<path fill="none" stroke="black" d="M540.495,-358.6C540.495,-352.6 546.495,-346.6 552.495,-346.6"/>
<text text-anchor="middle" x="607" y="-529.4" font-family="Times,serif" font-size="14.00">Track</text>
<polyline fill="none" stroke="black" points="540.495,-522.6 673.505,-522.6 "/>
<text text-anchor="start" x="548.495" y="-504.6" font-family="Times,serif" font-size="14.00">name :string</text>
<text text-anchor="start" x="548.495" y="-487.8" font-family="Times,serif" font-size="14.00">artist :string</text>
<text text-anchor="start" x="548.495" y="-471" font-family="Times,serif" font-size="14.00">album :string</text>
<text text-anchor="start" x="548.495" y="-454.2" font-family="Times,serif" font-size="14.00">href :string</text>
<text text-anchor="start" x="548.495" y="-437.4" font-family="Times,serif" font-size="14.00">popularity :float</text>
<text text-anchor="start" x="548.495" y="-420.6" font-family="Times,serif" font-size="14.00">length :float</text>
<text text-anchor="start" x="548.495" y="-403.8" font-family="Times,serif" font-size="14.00">created_at :datetime</text>
<text text-anchor="start" x="548.495" y="-387" font-family="Times,serif" font-size="14.00">updated_at :datetime</text>
<text text-anchor="start" x="548.495" y="-370.2" font-family="Times,serif" font-size="14.00">position :integer</text>
<text text-anchor="start" x="548.495" y="-353.4" font-family="Times,serif" font-size="14.00">cover_url :string</text>
</g>
<!-- Track&#45;&gt;Playlist -->
<g id="edge14" class="edge"><title>Track&#45;&gt;Playlist</title>
<path fill="none" stroke="black" d="M551.531,-337.397C548.162,-330.802 544.849,-324.315 541.661,-318.073"/>
<polygon fill="black" stroke="black" points="551.614,-337.56 552.155,-348.513 553.888,-342.013 556.163,-346.466 556.163,-346.466 556.163,-346.466 553.888,-342.013 560.17,-344.419 551.614,-337.56 551.614,-337.56"/>
<polygon fill="black" stroke="black" points="541.637,-318.026 541.096,-307.073 539.363,-313.573 537.088,-309.12 537.088,-309.12 537.088,-309.12 539.363,-313.573 533.081,-311.167 541.637,-318.026 541.637,-318.026"/>
</g>
<!-- Track&#45;&gt;PlaylistItem -->
<g id="edge12" class="edge"><title>Track&#45;&gt;PlaylistItem</title>
<path fill="none" stroke="black" d="M607,-336.309C607,-281.889 607,-219.452 607,-179.644"/>
<polygon fill="black" stroke="black" points="607,-336.326 602.5,-346.326 607,-341.326 607,-346.326 607,-346.326 607,-346.326 607,-341.326 611.5,-346.326 607,-336.326 607,-336.326"/>
<ellipse fill="black" stroke="black" cx="607" cy="-175.504" rx="4" ry="4"/>
</g>
<!-- Track&#45;&gt;Vote -->
<g id="edge16" class="edge"><title>Track&#45;&gt;Vote</title>
<path fill="none" stroke="black" d="M644.126,-336.691C659.103,-287.06 674.579,-227.219 682,-172 686.025,-142.047 692.227,-132.439 682,-104 678.337,-93.8131 672.445,-84.0603 665.81,-75.2599"/>
<polygon fill="black" stroke="black" points="644.058,-336.912 636.835,-345.163 642.599,-341.694 641.139,-346.476 641.139,-346.476 641.139,-346.476 642.599,-341.694 645.443,-347.79 644.058,-336.912 644.058,-336.912"/>
<polygon fill="black" stroke="black" points="665.809,-75.2591 663.059,-64.6437 662.68,-71.3598 659.55,-67.4605 659.55,-67.4605 659.55,-67.4605 662.68,-71.3598 656.041,-70.2772 665.809,-75.2591 665.809,-75.2591"/>
</g>
</g>
</svg>
